<?xml version="1.0" standalone="no"?>
<!DOCTYPE svg PUBLIC "-//W3C//DTD SVG 20010904//EN"
 "http://www.w3.org/TR/2001/REC-SVG-20010904/DTD/svg10.dtd">
<svg version="1.0" xmlns="http://www.w3.org/2000/svg"
 width="3000.000000pt" height="3000.000000pt" viewBox="0 0 3000.000000 3000.000000"
 preserveAspectRatio="xMidYMid meet">
<metadata>
Created by potrace 1.11, written by Peter Selinger 2001-2013
</metadata>
<g transform="translate(0.000000,3000.000000) scale(0.100000,-0.100000)"
fill="#000000" stroke="none">
<path d="M13255 27009 c-464 -20 -945 -64 -1445 -134 -96 -14 -191 -25 -212
-25 -48 0 -71 -23 -65 -64 4 -26 349 -1198 377 -1278 5 -16 6 -28 2 -28 -4 0
-122 147 -262 327 -598 765 -673 859 -700 888 -28 27 -32 28 -62 17 -19 -6
-87 -23 -153 -36 -324 -66 -780 -176 -1110 -267 -1548 -429 -2719 -1010 -3610
-1793 -176 -155 -376 -350 -381 -373 -9 -35 21 -63 67 -63 135 0 596 -195
1059 -448 1107 -604 2837 -1831 3502 -2482 112 -110 142 -146 163 -193 65
-149 1065 -2555 1065 -2563 0 -5 -26 -21 -58 -36 -197 -92 -601 -411 -940
-742 l-183 -179 -82 56 c-114 77 -227 176 -291 252 -32 40 -80 120 -123 208
-56 113 -81 151 -120 189 -53 49 -138 97 -211 119 -81 24 -62 153 -225 -1541
-81 -833 -248 -2559 -372 -3835 -124 -1276 -254 -2628 -290 -3005 -38 -398
-72 -706 -81 -735 -14 -47 -14 -59 10 -205 134 -816 139 -1635 16 -2367 -144
-853 -449 -1646 -965 -2508 -117 -196 -287 -459 -317 -492 l-20 -22 88 -84
c49 -46 107 -100 130 -120 l41 -36 330 71 331 71 207 374 c114 205 209 373
210 373 2 0 18 -18 35 -40 l32 -40 -95 -163 c-52 -89 -161 -277 -242 -417 -81
-140 -175 -300 -207 -355 -33 -55 -60 -103 -61 -108 -1 -4 122 -61 273 -127
l275 -121 90 32 c781 271 2806 1493 5410 3264 507 345 1466 1006 1813 1250 12
9 22 22 22 29 0 7 -35 82 -78 167 -233 458 -310 1033 -221 1644 33 231 91 463
165 664 80 217 219 467 323 581 l41 45 31 -35 c44 -51 123 -216 254 -540 191
-467 333 -753 520 -1049 265 -418 610 -800 1020 -1131 113 -90 138 -102 165
-74 11 11 193 504 405 1099 213 594 506 1413 652 1820 146 407 372 1040 504
1408 131 367 261 729 289 805 27 76 50 147 50 159 0 11 -8 27 -18 36 -16 15
-46 17 -210 17 l-192 0 0 31 c0 45 32 163 116 433 90 290 129 441 145 564 l12
92 430 0 430 0 186 -188 c1120 -1132 1765 -2272 1872 -3307 13 -124 19 -142
55 -151 36 -9 53 10 142 165 574 990 958 1965 988 2506 3 55 10 116 16 136 6
21 7 43 2 51 -5 8 -175 167 -377 352 -203 186 -367 339 -365 341 2 2 180 -22
396 -53 348 -49 394 -54 408 -41 36 37 157 679 218 1159 80 626 118 1374 97
1916 -13 339 -27 523 -44 542 -6 8 -22 18 -36 24 -20 7 -599 329 -745 414 -38
22 -38 23 -15 28 13 3 179 17 369 31 374 28 380 30 380 87 0 16 -12 111 -26
211 -72 513 -206 1061 -394 1612 -346 1011 -912 2054 -1579 2910 -793 1017
-1737 1863 -2856 2557 -211 131 -591 348 -609 348 -7 0 -20 -8 -29 -18 -9 -10
-159 -342 -332 -736 -174 -395 -320 -726 -325 -735 -8 -14 -9 -14 -10 3 0 10
34 401 76 868 72 807 75 851 58 869 -9 10 -28 19 -40 19 -13 0 -70 18 -126 41
-274 110 -716 262 -1008 348 -1230 360 -2533 516 -3845 460z"/>
</g>
</svg>
